<svg
  xmlns="http://www.w3.org/2000/svg"
  xmlns:xlink="http://www.w3.org/1999/xlink"
  id="Layer_1"
  x="0"
  y="0"
  version="1.1"
  viewBox="0 0 52.2 52.2"
  style="enable-background:new 0 0 52.2 52.2"
  xml:space="preserve"
>
  <g
    stroke-linecap="round"
    fill-rule="evenodd"
    transform="translate(0, 2.8)"
  >
    <path
      d="M 45 4.8 L 44.2 6.1 A 0.807 0.807 0 0 1 44.152 6.217 Q 44.121 6.276 44.084 6.316 A 0.243 0.243 0 0 1 43.9 6.4 Q 43.741 6.4 43.645 6.21 A 0.822 0.822 0 0 1 43.6 6.1 A 0.629 0.629 0 0 1 43.567 5.9 Q 43.567 5.773 43.621 5.646 A 0.888 0.888 0 0 1 43.7 5.5 A 5.685 5.685 0 0 0 44.002 4.994 A 5.111 5.111 0 0 0 44.05 4.9 A 5.504 5.504 0 0 1 44.345 4.385 A 6.149 6.149 0 0 1 44.4 4.3 Q 44.784 3.532 44.873 3.058 A 1.41 1.41 0 0 0 44.9 2.8 A 1.374 1.374 0 0 0 44.857 2.442 A 0.873 0.873 0 0 0 44.35 1.85 Q 43.8 1.6 43 1.6 A 7.195 7.195 0 0 0 42.481 1.62 A 8.664 8.664 0 0 0 42.15 1.65 A 6.672 6.672 0 0 0 41.51 1.752 A 5.804 5.804 0 0 0 41.3 1.8 A 15.341 15.341 0 0 0 39.14 2.7 A 12.198 12.198 0 0 0 37.65 3.6 A 16.064 16.064 0 0 0 35.922 5.028 A 20.982 20.982 0 0 0 34.6 6.4 A 29.699 29.699 0 0 0 33.208 7.987 Q 32.461 8.898 31.668 9.984 A 60.772 60.772 0 0 0 30.7 11.35 A 51.984 51.984 0 0 0 27.446 16.726 A 47.231 47.231 0 0 0 27.05 17.5 A 24.635 24.635 0 0 0 26.08 19.682 Q 25.66 20.779 25.425 21.771 A 11.58 11.58 0 0 0 25.2 23 A 2.855 2.855 0 0 0 25.103 23.393 Q 25.026 23.82 25.007 24.449 A 14.526 14.526 0 0 0 25 24.9 A 7.067 7.067 0 0 0 25.162 26.381 A 8.155 8.155 0 0 0 25.25 26.75 Q 25.5 27.7 26.2 27.7 Q 27.004 27.7 27.729 26.982 A 3.98 3.98 0 0 0 27.9 26.8 Q 28.7 25.9 29.2 25.3 Q 30.9 22.9 33 19.3 Q 35.1 15.7 36.3 12.5 L 36.5 11.4 A 4.975 4.975 0 0 1 36.729 10.717 Q 36.863 10.39 37.053 10.036 A 10.155 10.155 0 0 1 37.3 9.6 A 2.273 2.273 0 0 1 37.772 9.031 Q 38.268 8.609 38.972 8.6 A 2.397 2.397 0 0 1 39 8.6 A 1.156 1.156 0 0 1 39.372 8.655 Q 39.887 8.83 39.9 9.564 A 2.163 2.163 0 0 1 39.9 9.6 A 0.426 0.426 0 0 1 39.871 9.753 A 0.523 0.523 0 0 1 39.85 9.8 A 0.482 0.482 0 0 0 39.81 9.913 A 0.408 0.408 0 0 0 39.8 10 Q 39.4 12.3 39.2 14.55 Q 39 16.8 39 19.1 Q 39 22.465 39.539 24.381 A 7.066 7.066 0 0 0 39.8 25.15 Q 40.6 27.1 41.8 27.1 A 2.673 2.673 0 0 0 42.776 26.902 Q 43.517 26.612 44.34 25.897 A 9.181 9.181 0 0 0 44.45 25.8 A 25.525 25.525 0 0 0 46.569 23.653 A 29.317 29.317 0 0 0 47.25 22.85 Q 48.284 21.587 48.936 20.763 A 65.958 65.958 0 0 0 49.3 20.3 L 51.5 17.3 A 2.416 2.416 0 0 1 51.625 17.146 Q 51.83 16.916 51.98 16.901 A 0.208 0.208 0 0 1 52 16.9 A 0.183 0.183 0 0 1 52.105 16.929 Q 52.177 16.978 52.194 17.107 A 0.693 0.693 0 0 1 52.2 17.2 Q 52.2 17.7 52 18 A 39.534 39.534 0 0 1 50.689 20.072 A 49.435 49.435 0 0 1 49.65 21.55 A 61.592 61.592 0 0 1 47.826 23.921 A 75.496 75.496 0 0 1 46.6 25.4 A 13.941 13.941 0 0 1 43.997 27.89 A 12.994 12.994 0 0 1 43.7 28.1 A 7.722 7.722 0 0 1 42.624 28.727 Q 42.011 29.015 41.431 29.128 A 3.826 3.826 0 0 1 40.7 29.2 A 2.849 2.849 0 0 1 39.089 28.69 Q 38.695 28.426 38.324 28.026 A 5.491 5.491 0 0 1 38.3 28 A 4.969 4.969 0 0 1 37.636 27.057 Q 36.976 25.871 36.5 23.9 Q 36.3 22.8 36.15 20.65 Q 36 18.5 36.1 16.2 A 27.699 27.699 0 0 1 35.58 17.41 Q 35.334 17.949 35.039 18.546 A 58.493 58.493 0 0 1 34.4 19.8 A 36.402 36.402 0 0 1 32.03 23.694 A 39.842 39.842 0 0 1 31.85 23.95 Q 30.4 26 28.75 27.35 Q 27.472 28.396 26.224 28.632 A 3.893 3.893 0 0 1 25.5 28.7 Q 24.283 28.7 23.636 27.736 A 2.788 2.788 0 0 1 23.55 27.6 Q 22.9 26.5 22.75 25.1 Q 22.63 23.982 22.67 23.247 A 4.952 4.952 0 0 1 22.7 22.9 A 25.014 25.014 0 0 1 24.529 16.324 A 30.577 30.577 0 0 1 25.8 13.7 Q 28.3 9.1 32.05 5.5 Q 35.8 1.9 40 0.5 A 9.199 9.199 0 0 1 40.671 0.276 Q 41.007 0.179 41.311 0.124 A 5.164 5.164 0 0 1 41.45 0.1 A 8.513 8.513 0 0 1 42.396 0.007 A 7.434 7.434 0 0 1 42.7 0 A 5.872 5.872 0 0 1 43.832 0.099 Q 45.628 0.454 45.785 2.078 A 3.353 3.353 0 0 1 45.8 2.4 Q 45.8 3.6 45 4.8 Z M 2.643 46.215 A 6.492 6.492 0 0 0 4.9 46.6 A 10.944 10.944 0 0 0 7.266 46.337 A 13.449 13.449 0 0 0 10 45.4 A 34.071 34.071 0 0 0 12.16 44.312 A 26.791 26.791 0 0 0 14.6 42.8 A 15.955 15.955 0 0 0 16.153 41.447 A 12.582 12.582 0 0 0 18.9 37.45 A 15.576 15.576 0 0 0 19.811 34.532 A 19.126 19.126 0 0 0 20.2 30.6 Q 20.2 29.8 20.15 29 Q 20.1 28.2 20 27.4 A 5.495 5.495 0 0 1 20.093 27.394 Q 21.423 27.322 22.1 27.95 A 7.671 7.671 0 0 0 22.274 28.107 Q 22.839 28.6 23.1 28.6 A 0.421 0.421 0 0 0 23.127 28.599 Q 23.4 28.582 23.4 28.2 A 0.882 0.882 0 0 0 23.256 27.723 Q 23.033 27.37 22.466 27.062 A 5.381 5.381 0 0 0 21.9 26.8 Q 20.769 26.348 20.15 26.237 A 2.017 2.017 0 0 0 19.8 26.2 Q 19.4 23.7 18.55 21.35 Q 17.7 19 16.6 16.7 A 34.103 34.103 0 0 0 16.622 16.671 Q 17.069 16.074 17.838 14.994 A 245.252 245.252 0 0 0 18.4 14.2 Q 19.265 12.975 19.506 12.165 A 1.999 1.999 0 0 0 19.6 11.6 Q 19.6 11 18.9 11 A 0.913 0.913 0 0 0 18.782 11.009 Q 18.458 11.052 17.817 11.305 A 15.466 15.466 0 0 0 17.35 11.5 Q 16.2 12 15.2 12.65 Q 14.2 13.3 14.2 13.9 A 1.352 1.352 0 0 0 14.225 14.146 Q 14.312 14.612 14.7 15.35 A 34.363 34.363 0 0 1 14.918 15.771 Q 15.14 16.206 15.281 16.522 A 7.354 7.354 0 0 1 15.4 16.8 Q 13.8 19.2 11.9 21.3 Q 10 23.4 7.7 25.3 A 2.601 2.601 0 0 1 7.571 25.42 Q 7.225 25.721 6.465 26.23 A 36.668 36.668 0 0 1 5.9 26.6 A 15.813 15.813 0 0 1 5.701 26.726 Q 4.457 27.5 3.9 27.5 A 0.442 0.442 0 0 1 3.789 27.487 Q 3.653 27.452 3.615 27.319 A 0.432 0.432 0 0 1 3.6 27.2 Q 3.6 26.794 4.392 25.299 A 39.048 39.048 0 0 1 4.8 24.55 A 351.994 351.994 0 0 0 5.589 23.128 Q 6.003 22.378 6.456 21.55 A 647.812 647.812 0 0 0 7.6 19.45 A 77.479 77.479 0 0 0 8.398 17.939 A 67.01 67.01 0 0 0 10.4 13.7 A 25.806 25.806 0 0 0 10.621 13.169 Q 11.261 11.578 11.483 10.37 A 6.524 6.524 0 0 0 11.6 9.2 A 4.562 4.562 0 0 0 11.542 8.459 A 3.394 3.394 0 0 0 10.95 7 Q 10.501 6.378 9.693 6.186 A 3.428 3.428 0 0 0 8.9 6.1 Q 8.4 6.1 7.3 6.5 A 12.469 12.469 0 0 0 6.697 6.737 A 10.617 10.617 0 0 0 5.3 7.45 A 4.046 4.046 0 0 0 5.183 7.525 Q 4.4 8.041 4.4 8.6 A 0.253 0.253 0 0 0 4.4 8.615 Q 4.409 8.763 4.594 8.793 A 0.666 0.666 0 0 0 4.7 8.8 Q 5.013 8.8 5.63 8.373 A 8.264 8.264 0 0 0 6 8.1 A 6.246 6.246 0 0 1 6.241 7.921 Q 6.701 7.598 7.074 7.476 A 1.369 1.369 0 0 1 7.5 7.4 Q 8 7.4 8.1 7.9 A 6.465 6.465 0 0 1 8.114 7.97 Q 8.2 8.428 8.2 8.8 A 8.227 8.227 0 0 1 8.193 9.142 Q 8.154 10.071 7.907 11.081 A 13.991 13.991 0 0 1 7.3 12.95 A 632.713 632.713 0 0 0 7.242 13.095 Q 6.377 15.258 5.7 17 Q 4.8 19.3 3.85 21.6 Q 2.9 23.9 2.1 26.2 A 10.025 10.025 0 0 0 1.847 26.936 Q 1.6 27.767 1.6 28.4 Q 1.6 29.6 2.6 29.6 A 2.768 2.768 0 0 0 2.85 29.589 Q 4.074 29.478 5.75 28.3 A 109.714 109.714 0 0 0 6.571 27.718 Q 7.834 26.813 8.6 26.2 Q 12.7 22.4 15.8 17.8 Q 16.6 19.9 17.1 22.05 Q 17.6 24.2 17.7 26.5 A 14.16 14.16 0 0 0 16.773 26.774 Q 14.095 27.664 11.2 29.75 Q 9.288 31.128 7.66 32.396 A 81.956 81.956 0 0 0 5.3 34.3 Q 4.238 35.113 3.136 36.316 A 26.866 26.866 0 0 0 1.8 37.9 A 9.628 9.628 0 0 0 0.739 39.566 A 6.79 6.79 0 0 0 0 42.6 A 4.971 4.971 0 0 0 0.067 43.435 A 3.113 3.113 0 0 0 1.5 45.65 A 5.999 5.999 0 0 0 2.643 46.215 Z M 5.1 45.7 A 6.807 6.807 0 0 0 8.558 44.742 A 8.498 8.498 0 0 0 9.1 44.4 A 25.508 25.508 0 0 0 11.079 42.906 A 20.334 20.334 0 0 0 12.4 41.7 A 20.123 20.123 0 0 0 17.7 27.8 Q 15.98 28.374 13.438 29.769 A 53.168 53.168 0 0 0 13.2 29.9 Q 10.5 31.4 7.85 33.5 A 26.508 26.508 0 0 0 5.154 35.942 A 21.379 21.379 0 0 0 3.45 37.95 A 10.636 10.636 0 0 0 2.436 39.584 Q 1.941 40.585 1.779 41.557 A 5.722 5.722 0 0 0 1.7 42.5 Q 1.7 44 2.7 44.85 Q 3.7 45.7 5.1 45.7 Z M 16.1 15.7 A 20.274 20.274 0 0 0 16.937 14.224 A 22.361 22.361 0 0 0 17.05 14 A 20.771 20.771 0 0 1 17.876 12.502 A 18.878 18.878 0 0 1 18 12.3 A 6.784 6.784 0 0 0 16.842 12.861 A 6.093 6.093 0 0 0 16.55 13.05 Q 15.9 13.5 15.1 14 A 3.843 3.843 0 0 1 15.412 14.35 Q 15.566 14.547 15.671 14.744 A 2.284 2.284 0 0 1 15.7 14.8 Q 15.9 15.2 16.1 15.7 Z"
    />
  </g>
</svg>